<?xml version="1.0" standalone="no"?>
<!DOCTYPE svg PUBLIC "-//W3C//DTD SVG 20010904//EN"
 "http://www.w3.org/TR/2001/REC-SVG-20010904/DTD/svg10.dtd">
<svg version="1.0" xmlns="http://www.w3.org/2000/svg"
 width="225.000000pt" height="225.000000pt" viewBox="0 0 225.000000 225.000000"
 preserveAspectRatio="xMidYMid meet">

<g transform="translate(0.000000,225.000000) scale(0.100000,-0.100000)"
fill="#000000" stroke="none">
<path d="M698 1765 c-244 -123 -411 -212 -418 -224 -13 -25 -14 -799 -1 -833
7 -18 105 -71 428 -232 l418 -208 421 210 c342 171 423 215 428 234 11 41 7
808 -4 829 -12 21 -818 429 -847 428 -10 0 -201 -92 -425 -204z m767 -77 c179
-90 325 -165 325 -168 -1 -3 -62 -34 -136 -70 l-135 -64 -330 164 c-181 91
-329 167 -329 170 0 9 244 129 262 129 10 1 164 -72 343 -161z m-76 -364 c2
-1 -57 -33 -130 -70 l-133 -66 -332 163 c-183 90 -333 166 -333 169 -1 3 59
35 132 71 l132 66 330 -164 c182 -91 332 -167 334 -169z m-659 -64 l340 -170
0 -335 0 -335 -345 172 -345 173 0 332 c0 183 2 333 5 333 3 0 158 -77 345
-170z m1140 -163 l0 -332 -345 -173 -345 -172 0 335 0 335 338 169 c185 94
340 170 345 170 4 1 7 -149 7 -332z"/>
</g>
</svg>
